<svg id="Icons" xmlns="http://www.w3.org/2000/svg" width="64.352" height="61.018" viewBox="0 0 64.352 61.018">
  <g id="Black">
    <path id="Github" d="M732.175,560C714.406,560,700,574,700,591.284a31.379,31.379,0,0,0,22.006,29.679c1.609.288,2.2-.678,2.2-1.506,0-.744-.028-2.711-.046-5.32-8.95,1.89-10.839-4.193-10.839-4.193-1.461-3.614-3.57-4.576-3.57-4.576-2.923-1.941.221-1.9.221-1.9a6.737,6.737,0,0,1,4.926,3.224c2.873,4.781,7.532,3.4,9.366,2.6a6.606,6.606,0,0,1,2.043-4.182c-7.146-.791-14.656-3.473-14.656-15.46a11.906,11.906,0,0,1,3.311-8.395,10.965,10.965,0,0,1,.315-8.279s2.7-.84,8.848,3.207a31.345,31.345,0,0,1,16.112,0c6.141-4.047,8.838-3.207,8.838-3.207a10.941,10.941,0,0,1,.32,8.279,11.889,11.889,0,0,1,3.307,8.395c0,12.017-7.523,14.661-14.69,15.436,1.153.966,2.184,2.873,2.184,5.793,0,4.18-.04,7.555-.04,8.581,0,.836.579,1.81,2.212,1.5a31.381,31.381,0,0,0,21.986-29.675C764.352,574,749.946,560,732.175,560" transform="translate(-700 -560)" fill="#136361" fill-rule="evenodd"/>
  </g>
</svg>
