<svg xmlns="http://www.w3.org/2000/svg" width="65.297" height="61.518" viewBox="0 0 65.297 61.518">
  <g id="Layer_2" transform="translate(-7 -6.902)">
    <path id="Path_2" data-name="Path 2" d="M165.265,139.937H145.174a5.82,5.82,0,0,0-5.816,5.816v20.088a5.823,5.823,0,0,0,5.816,5.82h20.092a5.826,5.826,0,0,0,5.816-5.82V145.753A5.823,5.823,0,0,0,165.265,139.937Zm-10.048,26.3A10.444,10.444,0,1,1,165.662,155.8,10.457,10.457,0,0,1,155.218,166.241ZM166,147.513a2.471,2.471,0,1,1,2.472-2.471A2.472,2.472,0,0,1,166,147.513Zm0,0" transform="translate(-115.569 -118.06)" fill="#136361"/>
    <path id="Path_3" data-name="Path 3" d="M218.311,212.865a6.03,6.03,0,1,0,6.032,6.029A6.035,6.035,0,0,0,218.311,212.865Zm0,0" transform="translate(-178.662 -181.151)" fill="#136361"/>
    <path id="Path_4" data-name="Path 4" d="M39.649,6.9C21.617,6.9,7,20.673,7,37.661S21.617,68.419,39.649,68.419,72.3,54.648,72.3,37.661,57.68,6.9,39.649,6.9Zm19.64,40.009c0,5.15-4.444,9.337-9.907,9.337H29.919c-5.463,0-9.911-4.187-9.911-9.337V28.578c0-5.147,4.447-9.337,9.911-9.337H49.382c5.463,0,9.907,4.19,9.907,9.337V46.911Zm0,0" transform="translate(0 0)" fill="#136361"/>
  </g>
</svg>
