<svg xmlns="http://www.w3.org/2000/svg" width="62.543" height="62.542" viewBox="0 0 62.543 62.542">
  <path id="linkedin_circle" data-name="linkedin circle" d="M38.3,7.025A31.271,31.271,0,1,0,69.573,38.3,31.271,31.271,0,0,0,38.3,7.025ZM29.955,53.414H23.088V31.233h6.867ZM26.489,28.327a4.093,4.093,0,1,1,4.06-4.093,4.093,4.093,0,0,1-4.06,4.093Zm29.2,25.087H48.852V41.771c0-3.193-1.213-4.976-3.738-4.976-2.748,0-4.184,1.856-4.184,4.976V53.414H34.345V31.233H40.93V34.22a7.736,7.736,0,0,1,6.684-3.664c4.7,0,8.07,2.872,8.07,8.813Z" transform="translate(-7.03 -7.025)" fill="#136361"/>
</svg>
