<svg xmlns="http://www.w3.org/2000/svg" width="62.542" height="62.542" viewBox="0 0 62.542 62.542">
  <g id="Group_3" data-name="Group 3" transform="translate(-0.001)">
    <circle id="Ellipse_6" data-name="Ellipse 6" cx="31.271" cy="31.271" r="31.271" transform="translate(0.001 0)" fill="#136361"/>
    <g id="Group_2" data-name="Group 2" transform="translate(13.994 18.969)">
      <path id="Path_5" data-name="Path 5" d="M61.536,37.533a14.913,14.913,0,0,1-4.293,1.176,7.5,7.5,0,0,0,3.287-4.135,14.963,14.963,0,0,1-4.747,1.813,7.481,7.481,0,0,0-12.737,6.819A21.218,21.218,0,0,1,27.639,35.4a7.483,7.483,0,0,0,2.313,9.98,7.422,7.422,0,0,1-3.385-.936c0,.032,0,.064,0,.095a7.479,7.479,0,0,0,6,7.329,7.5,7.5,0,0,1-3.375.129,7.483,7.483,0,0,0,6.982,5.191A15.089,15.089,0,0,1,25.1,60.278,21.143,21.143,0,0,0,36.56,63.636c13.749,0,21.267-11.39,21.267-21.268,0-.324-.007-.647-.022-.967a15.158,15.158,0,0,0,3.73-3.869Z" transform="translate(-25.103 -34.028)" fill="#f1f2f2"/>
    </g>
  </g>
</svg>
