<svg xmlns="http://www.w3.org/2000/svg" xmlns:xlink="http://www.w3.org/1999/xlink" width="64" height="64" viewBox="0 0 64 64">
  <defs>
    <linearGradient id="linear-gradient" x1="0.5" x2="0.5" y2="1" gradientUnits="objectBoundingBox">
      <stop offset="0" stop-color="#00c9ff"/>
      <stop offset="1" stop-color="#92fe9d"/>
    </linearGradient>
  </defs>
  <g id="Group_26" data-name="Group 26" transform="translate(-245.235 -499.567)">
    <path id="Polygon_28" data-name="Polygon 28" d="M48,0,64,32,48,64H16L0,32,16,0Z" transform="translate(245.235 563.567) rotate(-90)" fill="url(#linear-gradient)"/>
    <g id="Group_25" data-name="Group 25" transform="translate(252.81 521.58)">
      <path id="Path_8" data-name="Path 8" d="M19.7,31.926a12.607,12.607,0,0,1-.132-2.062A12.6,12.6,0,0,1,19.7,27.8c.246-1.491.9-2.305,1.753-2.305.635,0,1.137.5,1.472,1.3a.3.3,0,0,1-.009.242l-.555.953c-.044.07-.088.052-.124-.034-.212-.468-.432-.728-.785-.728-.379,0-.669.364-.793,1.092a9.536,9.536,0,0,0-.088,1.543,9.737,9.737,0,0,0,.088,1.56c.123.71.414,1.074.793,1.074.353,0,.573-.26.785-.727.035-.088.079-.088.124-.018l.555.954a.294.294,0,0,1,.009.243c-.335.78-.837,1.283-1.472,1.283-.854,0-1.507-.816-1.753-2.306m19.254,0a12.608,12.608,0,0,1-.132-2.062,12.6,12.6,0,0,1,.132-2.063c.247-1.491.9-2.305,1.753-2.305.635,0,1.137.5,1.472,1.3a.29.29,0,0,1-.009.242l-.555.953c-.044.07-.088.052-.123-.034-.211-.468-.432-.728-.785-.728-.379,0-.67.364-.793,1.092a9.463,9.463,0,0,0-.088,1.543,9.7,9.7,0,0,0,.088,1.56c.123.71.414,1.074.793,1.074.353,0,.573-.26.785-.727.035-.088.079-.088.123-.018l.555.954a.289.289,0,0,1,.009.243c-.335.78-.837,1.283-1.472,1.283-.855,0-1.506-.816-1.753-2.306m22.254,2.115c-.053,0-.088-.069-.088-.174V29.05c0-1.075-.274-1.82-.8-1.82-.511,0-.811.745-.811,1.82v4.818c0,.1-.035.174-.088.174h-.811c-.053,0-.088-.069-.088-.174V29.05c0-1.075-.273-1.82-.8-1.82-.511,0-.811.745-.811,1.82v4.818c0,.1-.035.174-.088.174h-.811c-.053,0-.088-.069-.088-.174V25.86c0-.1.035-.174.088-.174h.811c.053,0,.088.069.088.174v.607h.009a1.261,1.261,0,0,1,1.119-.97c.5,0,.908.4,1.163,1.109h.009c.326-.692.749-1.109,1.357-1.109.987,0,1.542,1.317,1.542,3.1v5.268c0,.1-.036.174-.089.174h-.81Zm2.123,3.12c-.053,0-.088-.07-.088-.174V35.6c0-.1.035-.174.088-.174h.159c.335,0,.5-.293.635-.987l.124-.711L62.7,25.86c-.018-.1.018-.174.071-.174h.872c.053,0,.088.07.105.174l.961,5.46h.017l.917-5.46c.018-.1.053-.174.105-.174h.837c.053,0,.089.07.071.174l-1.621,8.7c-.37,1.976-.723,2.6-1.428,2.6h-.274ZM23.736,31.927a11.832,11.832,0,0,1-.141-2.063,11.78,11.78,0,0,1,.141-2.06c.238-1.456.889-2.306,1.753-2.306S27,26.348,27.233,27.8a11.839,11.839,0,0,1,.141,2.06,11.887,11.887,0,0,1-.141,2.063c-.238,1.455-.89,2.3-1.744,2.3s-1.515-.849-1.753-2.3m2.546-.52a9.065,9.065,0,0,0,.088-1.543,9.175,9.175,0,0,0-.088-1.541c-.123-.693-.4-1.092-.793-1.092s-.678.4-.8,1.092a9.232,9.232,0,0,0-.088,1.541,9.119,9.119,0,0,0,.088,1.543c.123.694.406,1.091.8,1.091s.67-.4.793-1.091M44.541,25.5a1.755,1.755,0,0,0-1.507.814.275.275,0,0,0-.017.225l.325,1.145c.027.087.079.1.124.035a1.111,1.111,0,0,1,.969-.572c.694,0,.93.41.942,1.312h0v.011c0,.021,0,.042,0,.065v2.7c0,.953-.335,1.42-.943,1.42-.476,0-.731-.346-.731-1.039,0-.78.282-1.128.916-1.128h.193c.053,0,.088-.069.088-.173V29.205c0-.1-.036-.173-.088-.173h-.351c-1.049,0-1.7.833-1.7,2.652,0,1.751.653,2.548,1.428,2.548a1.272,1.272,0,0,0,1.2-.97h.009v.607c0,.1.036.174.088.174h.74c.053,0,.088-.069.088-.174V28.409c0-2.045-.476-2.912-1.771-2.912M34.013,29.031c-.023,0-.038.03-.038.075v1.307c0,.045.015.075.038.075h2.182c.062,0,.1-.069.1-.172a14.434,14.434,0,0,0-.141-2.514c-.238-1.421-.872-2.3-1.745-2.3-.846,0-1.5.849-1.736,2.3a12.8,12.8,0,0,0-.141,2.063,12.293,12.293,0,0,0,.15,2.045c.238,1.455.872,2.322,1.771,2.322a2.015,2.015,0,0,0,1.745-1.421.262.262,0,0,0-.009-.243l-.519-.9c-.044-.069-.088-.051-.133.035a1.143,1.143,0,0,1-1,.8c-.475,0-.811-.45-.952-1.265-.022-.118-.039-.239-.05-.363h0c-.032-.353-.051-.7-.051-1.2.007-.476.021-.779.056-1.165,0-.005,0-.01,0-.015v-.011h0c.008-.091.02-.176.034-.262.115-.676.432-1.074.837-1.074s.713.4.828,1.074a4.039,4.039,0,0,1,.053.711c0,.069-.018.1-.053.1h-1.23Zm-2.3-6.775H30.9c-.053,0-.088.069-.088.172v7.9h0a7.564,7.564,0,0,1-.083,1.086c-.114.692-.388,1.072-.792,1.072s-.668-.381-.783-1.072a9.5,9.5,0,0,1-.088-1.558,9.481,9.481,0,0,1,.088-1.557c.113-.679.377-1.062.759-1.077h.346c.017-.008.028-.034.028-.071l0-1.582c0-.037-.013-.069-.032-.072l-.276,0h-.324c-.709.015-1.229.688-1.446,2.006a13.348,13.348,0,0,0-.15,2.355,13.315,13.315,0,0,0,.15,2.353c.22,1.333.748,2.008,1.469,2.008.572,0,.924-.415,1.126-.987h.009v.623c0,.1.035.173.089.173h.809c.053,0,.088-.069.088-.173V22.428c0-.1-.035-.172-.088-.172m21.218,6.775c-.023,0-.038.03-.038.075v1.307c0,.045.015.075.038.075h2.183c.062,0,.1-.069.1-.172a14.45,14.45,0,0,0-.141-2.514c-.238-1.421-.873-2.3-1.745-2.3-.846,0-1.5.849-1.736,2.3a12.78,12.78,0,0,0-.141,2.063,12.3,12.3,0,0,0,.15,2.045c.238,1.455.872,2.322,1.771,2.322a2.015,2.015,0,0,0,1.745-1.421.262.262,0,0,0-.009-.243l-.52-.9c-.044-.069-.088-.051-.132.035a1.143,1.143,0,0,1-1,.8c-.475,0-.81-.45-.952-1.265a3.623,3.623,0,0,1-.05-.363h0c-.032-.353-.051-.7-.051-1.2.007-.476.021-.779.055-1.165q0-.007,0-.015s0-.007,0-.011h0c.009-.089.02-.176.034-.262.114-.676.432-1.074.837-1.074s.713.4.828,1.074a4.045,4.045,0,0,1,.053.711c0,.069-.018.1-.053.1H52.928Zm-3.071-6.775c-.053,0-.088.069-.088.172v7.908a8.157,8.157,0,0,1-.088,1.088c-.115.693-.388,1.074-.793,1.074s-.669-.381-.784-1.074a9.547,9.547,0,0,1-.088-1.56A9.489,9.489,0,0,1,48.1,28.3c.113-.679.377-1.06.761-1.075h.346c.053,0,.088-.069.088-.172V25.669c0-.1-.035-.173-.088-.173h-.6c-.71.015-1.23.69-1.448,2.009a13.359,13.359,0,0,0-.15,2.358,13.341,13.341,0,0,0,.15,2.357c.22,1.334.749,2.01,1.471,2.01.573,0,.925-.415,1.128-.988l.009.624c0,.1.035.174.088.174h.811c.053,0,.088-.069.088-.174V22.428c0-.1-.036-.172-.089-.172h-.811ZM38.888,36.4v1.579c0,.1.035.173.088.173h3c.054,0,.089-.069.089-.173V36.4c0-.1-.035-.172-.089-.172h-3c-.053,0-.088.069-.088.172" transform="translate(-17.525 -18.111)" fill="#fff"/>
      <path id="Path_9" data-name="Path 9" d="M20.6.056l0-.008h0C20.58.015,20.557,0,20.533,0H.279A.06.06,0,0,0,.259,0l-.005,0L.242.012l0,0A.2.2,0,0,0,.19.172v19.7a.25.25,0,0,0,.032.137.028.028,0,0,0,0,.008h0a.064.064,0,0,0,.051.027H20.533c.03,0,.054-.022.069-.061a.294.294,0,0,0,.019-.112V.172A.29.29,0,0,0,20.6.056ZM1.265,18.121l-.018,0-.005,0a.047.047,0,0,1-.012-.007l0,0a.2.2,0,0,1-.05-.156V2.094a.205.205,0,0,1,.05-.158l0,0,.017-.009.018,0H19.546l.018,0,.005,0,.012.006,0,0a.2.2,0,0,1,.05.158V17.951a.2.2,0,0,1-.05.157l0,0-.012.006-.005,0a.057.057,0,0,1-.018,0H1.265Z" transform="translate(0 0)" fill="#fff"/>
    </g>
  </g>
</svg>
