<svg xmlns="http://www.w3.org/2000/svg" xmlns:xlink="http://www.w3.org/1999/xlink" width="64" height="64" viewBox="0 0 64 64">
  <defs>
    <linearGradient id="linear-gradient" x1="0.5" x2="0.5" y2="1" gradientUnits="objectBoundingBox">
      <stop offset="0" stop-color="#00c9ff"/>
      <stop offset="1" stop-color="#92fe9d"/>
    </linearGradient>
  </defs>
  <g id="Group_35" data-name="Group 35" transform="translate(-111.235 -614.567)">
    <path id="Polygon_30" data-name="Polygon 30" d="M48,0,64,32,48,64H16L0,32,16,0Z" transform="translate(111.235 678.567) rotate(-90)" fill="url(#linear-gradient)"/>
    <path id="Path_17" data-name="Path 17" d="M21.774,5.215a10.241,10.241,0,0,1,.479-3.094V1.051h-.367c-.743,0-1.372.727-1.737,2.37h-.021V1.231H18.222V14.58h1.906V9.191c0-2.287.262-4.031,1.319-4.031a1.055,1.055,0,0,1,.327.055ZM36.2,5.166a13.324,13.324,0,0,1,.749-3.074V1.05h-.367c-.743,0-1.371.727-1.739,2.369h-.021V1.231H32.918V14.58h1.906V9.191c0-2.287.263-4.031,1.32-4.031Zm-10.558-.5a1.473,1.473,0,0,0-1.029-.65c-.219,0-.6.232-.6.911a1.127,1.127,0,0,0,.86,1.174c.888.441,1.56,1.483,1.56,3.952,0,3.512-1.288,4.974-2.535,4.974a2.815,2.815,0,0,1-2.168-1.536l.691-3.307c.387.679,1.036,1.353,1.508,1.353.241,0,.6-.285.6-1.014,0-1.041-.6-1.1-1.195-1.485s-1.192-1.117-1.192-3.512c0-3.279,1.192-4.734,2.368-4.734a2.3,2.3,0,0,1,1.769.858l-.637,3.017ZM42.665,14.58H40.759V13.095h-.021c-.335,1.327-1,1.925-1.624,1.925-1.593,0-2.713-3.305-2.713-7.131s1.1-7.1,2.691-7.1c.618,0,1.268.572,1.666,1.742v-1.3h1.905V14.58ZM38.371,7.918c0,1.69.451,2.991,1.225,2.991s1.224-1.3,1.224-2.991c0-1.64-.449-3.018-1.224-3.018S38.371,6.278,38.371,7.918ZM32.617,8.7H28.605c0,1.924.409,2.964,1.195,2.964.408,0,.7-.337.911-1.222h1.833c-.3,3.149-1.509,4.58-2.733,4.58-1.779,0-3.109-2.5-3.109-7.1C26.7,3.47,27.925.791,29.674.791c1.864,0,2.944,2.863,2.944,7.415v.5Zm-1.77-2.734c-.095-1.275-.566-2.107-1.078-2.107-.556,0-1.015.726-1.132,2.107ZM12.161,7.686q0-.171-.009-.342v0A15.95,15.95,0,0,0,11.678,3.9a10.1,10.1,0,0,0-.415-1.271,5.431,5.431,0,0,0-.785-1.382A1.907,1.907,0,0,0,9.015.425c-.051,0-.105,0-.159.007A1.867,1.867,0,0,0,7.8.968a4.064,4.064,0,0,0-.873,1.219c-.049.1-.1.221-.159.356l-.041.1L6.665,2.8h0l-.026.067L6.627,2.9l-.067.181q-.073.209-.142.426v0l0,0c-.092.286-.177.582-.24.848q-.064.258-.124.522L5.5,7.71v0l-.029.144-.061.314c-.12.623-.25,1.243-.394,1.756-.322.9-.685,1.342-1.153,1.342a.724.724,0,0,1-.1-.009,1.017,1.017,0,0,1-.737-.522q-.034-.051-.067-.107a3.838,3.838,0,0,1-.409-1.154A7.632,7.632,0,0,1,2.4,7.8c0-.016,0-.03,0-.043A5.676,5.676,0,0,1,2.832,5.48a2.856,2.856,0,0,1,.214-.39q.016-.024.031-.045a.879.879,0,0,1,.715-.433l.084.006C4.307,4.66,4.639,5,4.9,5.674l.831-3.808A4,4,0,0,0,5.064,1C5.055.987,5.045.977,5.035.969,5.006.942,4.977.915,4.946.89A1.888,1.888,0,0,0,4.124.465L4.1.458C4.058.451,4.014.437,3.971.432S3.876.425,3.829.424H3.8a1.913,1.913,0,0,0-1.451.819,7.024,7.024,0,0,0-1.2,2.651,16.255,16.255,0,0,0-.484,3.79q0,.174,0,.348a13.979,13.979,0,0,0,.815,5.007c.567,1.482,1.3,2.28,2.188,2.375a1.637,1.637,0,0,0,.169.01,1.849,1.849,0,0,0,1.379-.682,3.8,3.8,0,0,0,.308-.394c.056-.083.109-.17.161-.263l.039-.067L5.79,13.9q.117-.216.224-.466l.025-.06q.063-.152.124-.312l.149-.43.057-.182.026-.1.026-.1c.221-.949.941-4.4.941-4.4V7.845L7.4,7.634l.036-.165c.106-.494.183-.844.284-1.213l0-.011c.237-.877.644-1.5,1.124-1.607.805-.177,1.51,1.174,1.575,3.017s-.536,3.481-1.341,3.659a.67.67,0,0,1-.484-.079l0,0c-.591-.314-.967-1.414-1.152-1.906l-.775,3.638s.241.62.406.93a4.357,4.357,0,0,0,.549.8,1.879,1.879,0,0,0,1.36.721.653.653,0,0,0,.106-.006c.884-.095,1.672-.959,2.24-2.441a13.638,13.638,0,0,0,.833-4.916V8q0-.159,0-.319Zm2.963,7.345a1.812,1.812,0,0,1-1.093-.358,2.75,2.75,0,0,1-.838-1.131,7.868,7.868,0,0,1-.537-1.971,18.8,18.8,0,0,1-.189-2.879V1.228h1.838v7.4a5.155,5.155,0,0,0,.235,1.826q.236.57.6.57t.6-.531a4.825,4.825,0,0,0,.232-1.769v-7.5h1.838V8.593a19.243,19.243,0,0,1-.193,2.957,7.891,7.891,0,0,1-.544,1.992,2.755,2.755,0,0,1-.85,1.131,1.852,1.852,0,0,1-1.1.356Z" transform="translate(121.335 638.574)" fill="#fff"/>
  </g>
</svg>
