<svg xmlns="http://www.w3.org/2000/svg" xmlns:xlink="http://www.w3.org/1999/xlink" width="64" height="64" viewBox="0 0 64 64">
  <defs>
    <linearGradient id="linear-gradient" x1="0.5" x2="0.5" y2="1" gradientUnits="objectBoundingBox">
      <stop offset="0" stop-color="#00c9ff"/>
      <stop offset="1" stop-color="#92fe9d"/>
    </linearGradient>
  </defs>
  <g id="Group_27" data-name="Group 27" transform="translate(-175.235 -497.567)">
    <path id="Polygon_26" data-name="Polygon 26" d="M48,0,64,32,48,64H16L0,32,16,0Z" transform="translate(175.235 561.567) rotate(-90)" fill="url(#linear-gradient)"/>
    <path id="Path_13" data-name="Path 13" d="M12.113,12.7l0,0,0,0Zm16.59-.3a2.055,2.055,0,0,0-.383-.277A1.744,1.744,0,0,0,27,11.974a1.648,1.648,0,0,0-1.018.8,9.237,9.237,0,0,1-2.33,2.812,13.033,13.033,0,0,0,.222-2.389,13.681,13.681,0,0,0-7.334-12,1.745,1.745,0,0,0-1.614-.016,1.579,1.579,0,0,0-.871,1.29A10.915,10.915,0,0,1,9.942,10.3l-.384.3a13.921,13.921,0,0,0-3.312,2.947,13.659,13.659,0,0,0-2.754,12.45,14.478,14.478,0,0,0,8.846,9.556A1.742,1.742,0,0,0,13.9,35.4a1.561,1.561,0,0,0,.737-1.313,1.584,1.584,0,0,0-.083-.494,10.5,10.5,0,0,1-.317-4.084,14.727,14.727,0,0,0,7.187,6.355,1.744,1.744,0,0,0,1.192.06,14.557,14.557,0,0,0,9.953-10.147A13.747,13.747,0,0,0,28.7,12.4Zm-6.508,20.3a11.159,11.159,0,0,1-5.961-6.966,13.456,13.456,0,0,1-.3-1.525A1.621,1.621,0,0,0,14.6,22.88a1.721,1.721,0,0,0-.319-.029,1.684,1.684,0,0,0-1.444.793,13.617,13.617,0,0,0-2.009,7.465,10.934,10.934,0,0,1-4.414-7.419,10.66,10.66,0,0,1,2.456-8.2,10.722,10.722,0,0,1,2.6-2.307A1.24,1.24,0,0,0,11.6,13.1s.494-.388.511-.4a14.112,14.112,0,0,0,4.831-7.33,10.274,10.274,0,0,1,2.31,12.8,1.519,1.519,0,0,0,.2,1.746,1.723,1.723,0,0,0,1.775.5,13.118,13.118,0,0,0,6.437-4.252,10.607,10.607,0,0,1,1.471,9.524,11.336,11.336,0,0,1-6.937,7.021Z" transform="translate(189 511)" fill="#fff"/>
  </g>
</svg>
