<svg xmlns="http://www.w3.org/2000/svg" xmlns:xlink="http://www.w3.org/1999/xlink" width="64" height="64" viewBox="0 0 64 64">
  <defs>
    <linearGradient id="linear-gradient" x1="0.5" x2="0.5" y2="1" gradientUnits="objectBoundingBox">
      <stop offset="0" stop-color="#00c9ff"/>
      <stop offset="1" stop-color="#92fe9d"/>
    </linearGradient>
  </defs>
  <g id="Group_24" data-name="Group 24" transform="translate(-102.235 -502.567)">
    <path id="Polygon_23" data-name="Polygon 23" d="M48,0,64,32,48,64H16L0,32,16,0Z" transform="translate(102.235 566.567) rotate(-90)" fill="url(#linear-gradient)"/>
    <g id="Icons" transform="translate(117 516)">
      <g id="Black">
        <path id="Github" d="M717.5,560A17.726,17.726,0,0,0,700,577.945a17.91,17.91,0,0,0,11.969,17.024c.875.165,1.2-.389,1.2-.864,0-.427-.015-1.555-.025-3.052-4.868,1.084-5.9-2.405-5.9-2.405a4.719,4.719,0,0,0-1.942-2.625c-1.59-1.113.12-1.091.12-1.091a3.685,3.685,0,0,1,2.679,1.849,3.674,3.674,0,0,0,5.094,1.491,3.865,3.865,0,0,1,1.111-2.4c-3.886-.453-7.971-1.992-7.971-8.868a7.034,7.034,0,0,1,1.8-4.815,6.608,6.608,0,0,1,.171-4.749s1.469-.482,4.813,1.839a16.2,16.2,0,0,1,8.763,0c3.34-2.321,4.807-1.839,4.807-1.839a6.592,6.592,0,0,1,.174,4.749,7.024,7.024,0,0,1,1.8,4.815c0,6.893-4.091,8.41-7.989,8.854a4.344,4.344,0,0,1,1.188,3.323c0,2.4-.022,4.333-.022,4.922,0,.479.315,1.038,1.2.862A17.913,17.913,0,0,0,735,577.945,17.726,17.726,0,0,0,717.5,560" transform="translate(-700 -560)" fill="#fff" fill-rule="evenodd"/>
      </g>
    </g>
  </g>
</svg>
