<svg xmlns="http://www.w3.org/2000/svg" xmlns:xlink="http://www.w3.org/1999/xlink" width="64" height="64" viewBox="0 0 64 64">
  <defs>
    <linearGradient id="linear-gradient" x1="0.5" x2="0.5" y2="1" gradientUnits="objectBoundingBox">
      <stop offset="0" stop-color="#00c9ff"/>
      <stop offset="1" stop-color="#92fe9d"/>
    </linearGradient>
  </defs>
  <g id="Group_31" data-name="Group 31" transform="translate(-213.235 -554.567)">
    <path id="Polygon_27" data-name="Polygon 27" d="M48,0,64,32,48,64H16L0,32,16,0Z" transform="translate(213.235 618.567) rotate(-90)" fill="url(#linear-gradient)"/>
    <path id="hackerrank-brands" d="M55.254,8.75C54.254,7.044,42,0,40,0S25.742,7.027,24.749,8.75s-1,15.777,0,17.5S38.007,35,40,35s14.254-7.036,15.252-8.75S56.253,10.459,55.254,8.75ZM44.133,28.316c-.276,0-2.819-2.445-2.619-2.645a3.674,3.674,0,0,1,1.209-.125c0-1.793.041-4.689.065-5.9,0-.137-.03-.234-.03-.4H37.251c0,.485-.032,2.475.094,4.982.016.31-.109.41-.4.406-.7,0-1.4-.008-2.1-.005-.283,0-.4-.1-.4-.418.063-2.286.207-5.742-.01-14.538V9.455a4.246,4.246,0,0,1-1.189-.126c-.2-.2,2.38-2.645,2.652-2.645s2.837,2.446,2.637,2.645a4.18,4.18,0,0,1-1.156.126v.216c-.167,1.76-.138,5.441-.181,7.2h5.531c0-.311.027-2.375-.083-5.718-.007-.232.065-.353.29-.355.763-.005,1.526-.009,2.29,0,.238,0,.315.118.31.368C45.3,24.243,45.5,23.33,45.5,25.545a4.97,4.97,0,0,1,1.219.126c.2.2-2.317,2.645-2.59,2.645Z" transform="translate(205.528 569)" fill="#fff"/>
  </g>
</svg>
