<svg xmlns="http://www.w3.org/2000/svg" xmlns:xlink="http://www.w3.org/1999/xlink" width="64" height="64" viewBox="0 0 64 64">
  <defs>
    <linearGradient id="linear-gradient" x1="0.5" x2="0.5" y2="1" gradientUnits="objectBoundingBox">
      <stop offset="0" stop-color="#00c9ff"/>
      <stop offset="1" stop-color="#92fe9d"/>
    </linearGradient>
  </defs>
  <g id="Group_38" data-name="Group 38" transform="translate(-255.235 -609.567)">
    <path id="Polygon_32" data-name="Polygon 32" d="M48,0,64,32,48,64H16L0,32,16,0Z" transform="translate(255.235 673.567) rotate(-90)" fill="url(#linear-gradient)"/>
    <g id="Group_37" data-name="Group 37" transform="translate(-211 222.022)">
      <g id="Group_2" data-name="Group 2" transform="translate(481 402)">
        <path id="Path_4" data-name="Path 4" d="M18.471,7.709a2.6,2.6,0,0,0-1.493-1.492,4.347,4.347,0,0,0-1.459-.27c-.828-.038-1.077-.047-3.175-.047S10,5.909,9.169,5.947a4.347,4.347,0,0,0-1.46.27A2.6,2.6,0,0,0,6.217,7.711a4.348,4.348,0,0,0-.27,1.459C5.909,10,5.9,10.246,5.9,12.344s.009,2.347.047,3.175a4.348,4.348,0,0,0,.27,1.46,2.6,2.6,0,0,0,1.493,1.492,4.347,4.347,0,0,0,1.459.27c.828.038,1.077.047,3.175.047s2.347-.009,3.175-.047a4.347,4.347,0,0,0,1.46-.27,2.6,2.6,0,0,0,1.492-1.493,4.347,4.347,0,0,0,.27-1.459c.038-.828.047-1.077.047-3.175S18.779,10,18.741,9.169a4.347,4.347,0,0,0-.27-1.46ZM12.344,16.38a4.036,4.036,0,1,1,4.036-4.036,4.036,4.036,0,0,1-4.036,4.036Zm4.2-7.288a.943.943,0,1,1,.943-.943A.943.943,0,0,1,16.539,9.092Z" transform="translate(5.156 5.156)" fill="#fff"/>
        <circle id="Ellipse_2" data-name="Ellipse 2" cx="2.62" cy="2.62" r="2.62" transform="translate(14.88 14.88)" fill="#fff"/>
        <path id="Path_5" data-name="Path 5" d="M17.9.4A17.5,17.5,0,1,0,35.4,17.9,17.5,17.5,0,0,0,17.9.4Zm9.06,21.259a6.69,6.69,0,0,1-.425,2.211,4.659,4.659,0,0,1-2.665,2.665,6.69,6.69,0,0,1-2.211.425c-.973.044-1.283.055-3.759.055S15.115,27,14.141,26.96a6.69,6.69,0,0,1-2.211-.425A4.659,4.659,0,0,1,9.265,23.87a6.69,6.69,0,0,1-.425-2.211c-.044-.973-.055-1.283-.055-3.759s.011-2.785.055-3.759a6.69,6.69,0,0,1,.425-2.211A4.659,4.659,0,0,1,11.93,9.265a6.69,6.69,0,0,1,2.211-.425c.973-.044,1.283-.055,3.759-.055s2.785.011,3.759.055a6.69,6.69,0,0,1,2.211.425,4.659,4.659,0,0,1,2.665,2.665,6.69,6.69,0,0,1,.425,2.211c.044.973.055,1.283.055,3.759S27,20.685,26.96,21.659Z" transform="translate(-0.4 -0.4)" fill="#fff"/>
      </g>
    </g>
  </g>
</svg>
