<svg xmlns="http://www.w3.org/2000/svg" xmlns:xlink="http://www.w3.org/1999/xlink" width="64" height="64" viewBox="0 0 64 64">
  <defs>
    <linearGradient id="linear-gradient" x1="0.5" x2="0.5" y2="1" gradientUnits="objectBoundingBox">
      <stop offset="0" stop-color="#00c9ff"/>
      <stop offset="1" stop-color="#92fe9d"/>
    </linearGradient>
  </defs>
  <g id="Group_28" data-name="Group 28" transform="translate(-70.235 -561.567)">
    <path id="Polygon_24" data-name="Polygon 24" d="M48,0,64,32,48,64H16L0,32,16,0Z" transform="translate(70.235 625.567) rotate(-90)" fill="url(#linear-gradient)"/>
    <path id="Path_14" data-name="Path 14" d="M32.8,8H7.2a3.09,3.09,0,0,0-3.184,3L4,29a3.1,3.1,0,0,0,3.2,3H32.8A3.1,3.1,0,0,0,36,29V11A3.1,3.1,0,0,0,32.8,8Zm0,6L20,21.5,7.2,14V11L20,18.5,32.8,11Z" transform="translate(82 574)" fill="#fff"/>
  </g>
</svg>
