<svg xmlns="http://www.w3.org/2000/svg" xmlns:xlink="http://www.w3.org/1999/xlink" width="64" height="64" viewBox="0 0 64 64">
  <defs>
    <linearGradient id="linear-gradient" x1="0.5" x2="0.5" y2="1" gradientUnits="objectBoundingBox">
      <stop offset="0" stop-color="#00c9ff"/>
      <stop offset="1" stop-color="#92fe9d"/>
    </linearGradient>
  </defs>
  <g id="Group_23" data-name="Group 23" transform="translate(-30.235 -502.567)">
    <path id="Polygon_25" data-name="Polygon 25" d="M48,0,64,32,48,64H16L0,32,16,0Z" transform="translate(30.235 566.567) rotate(-90)" fill="url(#linear-gradient)"/>
    <path id="Union_2" data-name="Union 2" d="M.833,32A.834.834,0,0,1,0,31.167v-2.19a15,15,0,0,1,30,0v2.19a.834.834,0,0,1-.833.833ZM7.826,6.069C7.826,2.717,11.038,0,15,0s7.174,2.717,7.174,6.069-3.212,6.07-7.174,6.07S7.826,9.421,7.826,6.069Z" transform="translate(47 516.022)" fill="#fff"/>
  </g>
</svg>
