<svg xmlns="http://www.w3.org/2000/svg" xmlns:xlink="http://www.w3.org/1999/xlink" width="64" height="64" viewBox="0 0 64 64">
  <defs>
    <linearGradient id="linear-gradient" x1="0.5" x2="0.5" y2="1" gradientUnits="objectBoundingBox">
      <stop offset="0" stop-color="#00c9ff"/>
      <stop offset="1" stop-color="#92fe9d"/>
    </linearGradient>
  </defs>
  <g id="Group_34" data-name="Group 34" transform="translate(-287.235 -550.567)">
    <path id="Polygon_29" data-name="Polygon 29" d="M48,0,64,32,48,64H16L0,32,16,0Z" transform="translate(287.235 614.567) rotate(-90)" fill="url(#linear-gradient)"/>
    <path id="Combined-Shape" d="M-139.083,257.486h0a9.562,9.562,0,0,0,6-8.917A9.5,9.5,0,0,0-142.51,239a9.5,9.5,0,0,0-9.427,9.572,9.561,9.561,0,0,0,6,8.917h0a.984.984,0,0,0,.4.085,1.015,1.015,0,0,0,1.01-1h0v-8a2.039,2.039,0,0,1,2.021-2.052,2.039,2.039,0,0,1,2.021,2.052v8h0a1.015,1.015,0,0,0,1.01,1A.947.947,0,0,0-139.083,257.486Zm1.187,8.229A17.735,17.735,0,0,0-125,248.57a17.634,17.634,0,0,0-17.5-17.77A17.634,17.634,0,0,0-160,248.57a17.735,17.735,0,0,0,12.9,17.146c.021.011.052.011.073.021s.063.011.083.021h0a1.711,1.711,0,0,0,.406.042,2.038,2.038,0,0,0,2.021-2.052,2.039,2.039,0,0,0-1.5-1.978,13.652,13.652,0,0,1-9.948-13.2A13.564,13.564,0,0,1-142.51,234.9a13.571,13.571,0,0,1,13.458,13.666A13.652,13.652,0,0,1-139,261.77a2.048,2.048,0,0,0-1.5,1.978,2.039,2.039,0,0,0,2.021,2.052,1.769,1.769,0,0,0,.406-.042h0c.031-.011.063-.011.083-.021A.245.245,0,0,0-137.9,265.715Z" transform="translate(462 333.984)" fill="#fff"/>
  </g>
</svg>
