<svg xmlns="http://www.w3.org/2000/svg" xmlns:xlink="http://www.w3.org/1999/xlink" width="64" height="64" viewBox="0 0 64 64">
  <defs>
    <linearGradient id="linear-gradient" x1="0.5" x2="0.5" y2="1" gradientUnits="objectBoundingBox">
      <stop offset="0" stop-color="#fc840c"/>
      <stop offset="1" stop-color="#da2655"/>
    </linearGradient>
  </defs>
  <g id="Group_40" data-name="Group 40" transform="translate(-379.235 -594.567)">
    <g id="Group_35" data-name="Group 35" transform="translate(268 -20)">
      <path id="Polygon_30" data-name="Polygon 30" d="M48,0,64,32,48,64H16L0,32,16,0Z" transform="translate(111.235 678.567) rotate(-90)" fill="url(#linear-gradient)"/>
    </g>
    <path id="Path_19" data-name="Path 19" d="M18.5,0A18.5,18.5,0,1,0,37,18.5,18.5,18.5,0,0,0,18.5,0ZM11.177,8.479H26.594a.385.385,0,0,1,.385.385V25.052a.385.385,0,0,1-.113.272l-3.083,3.083a.385.385,0,0,1-.272.113H11.177a.385.385,0,0,1-.385-.385V8.865a.385.385,0,0,1,.385-.385Zm.385.771v18.5H23.125s0-.005,0-.008V25.052a.385.385,0,0,1,.385-.385h2.7V9.25Zm2.087,1.542.611.611.611-.611.545.547-.611.61.611.611-.545.545-.611-.611-.611.611-.545-.545.611-.611-.611-.61Zm3.309,0h7.708v.771H16.958Zm0,1.542h7.708V13.1H16.958Zm0,1.542h3.083v.771H16.958Zm-3.309,2.313.611.611.611-.611.545.547-.611.61.611.611-.545.545-.611-.611-.611.611-.545-.545.611-.611-.611-.61Zm3.309,0h7.708v.771H16.958Zm0,1.542h7.708V18.5H16.958Zm0,1.542h4.625v.771H16.958Zm-3.309,2.313.611.611.611-.611.545.547-.611.61.611.611-.545.545-.611-.611-.611.611-.545-.545.611-.611-.611-.61Zm3.309,0h7.708v.771H16.958Zm0,1.542h7.708V23.9H16.958Zm0,1.542H18.5v.771H16.958Zm6.937.771v1.768l1.768-1.768Z" transform="translate(393 608)" fill="#fff" fill-rule="evenodd"/>
  </g>
</svg>
