<svg xmlns="http://www.w3.org/2000/svg" xmlns:xlink="http://www.w3.org/1999/xlink" width="64" height="64" viewBox="0 0 64 64">
  <defs>
    <linearGradient id="linear-gradient" x1="0.5" x2="0.5" y2="1" gradientUnits="objectBoundingBox">
      <stop offset="0" stop-color="#00c9ff"/>
      <stop offset="1" stop-color="#92fe9d"/>
    </linearGradient>
  </defs>
  <g id="Group_36" data-name="Group 36" transform="translate(-181.235 -614.567)">
    <path id="Polygon_31" data-name="Polygon 31" d="M48,0,64,32,48,64H16L0,32,16,0Z" transform="translate(181.235 678.567) rotate(-90)" fill="url(#linear-gradient)"/>
    <path id="Path_18" data-name="Path 18" d="M11.142,33A18.251,18.251,0,0,1,.552,29.607a1.261,1.261,0,0,1-.446-1.393,1.04,1.04,0,0,1,1.1-.787,10.452,10.452,0,0,0,6.787-1.441,10.031,10.031,0,0,1-5.171-5.8,1.309,1.309,0,0,1,.19-1.257,1.024,1.024,0,0,1,.429-.32A10.134,10.134,0,0,1,.723,11.625a1.2,1.2,0,0,1,.6-1.073.947.947,0,0,1,.589-.092A10.312,10.312,0,0,1,2.2,2.217a1.033,1.033,0,0,1,.831-.6.954.954,0,0,1,.9.47,16.755,16.755,0,0,0,11.45,7.47c-.1-2.359.328-6.112,2.969-7.99A7.123,7.123,0,0,1,22.6,0a6.487,6.487,0,0,1,4.9,2.293A13.288,13.288,0,0,0,30.571.8.931.931,0,0,1,31.759.767a1.265,1.265,0,0,1,.429,1.266,7.945,7.945,0,0,1-.636,1.759.933.933,0,0,1,1.208.23,1.309,1.309,0,0,1,.146,1.42,15.407,15.407,0,0,1-3.013,3.867,25.431,25.431,0,0,1-5.357,16.553c-3.612,4.6-8.36,7.131-13.366,7.138h-.028Z" transform="translate(196.9 630)" fill="#fff"/>
  </g>
</svg>
